<?xml version="1.0" standalone="no"?>
<!DOCTYPE svg PUBLIC "-//W3C//DTD SVG 20010904//EN"
 "http://www.w3.org/TR/2001/REC-SVG-20010904/DTD/svg10.dtd">
<svg version="1.0" xmlns="http://www.w3.org/2000/svg"
 width="656.000000pt" height="656.000000pt" viewBox="0 0 656.000000 656.000000"
 preserveAspectRatio="xMidYMid meet">
<metadata>
Created by potrace 1.11, written by Peter Selinger 2001-2013
</metadata>
<g transform="translate(0.000000,656.000000) scale(0.100000,-0.100000)"
fill="#000000" stroke="none">
<path d="M12 3281 l3 -3273 415 0 c2162 4 4371 2 4393 -3 53 -14 259 115 432
270 204 182 628 607 825 825 41 46 94 104 117 130 87 95 234 276 246 302 6 16
14 28 17 28 3 0 14 17 25 38 11 20 22 39 25 42 12 12 41 70 34 70 -3 0 -1 7 6
15 8 10 9 23 3 42 -5 16 -9 1038 -8 2400 0 1305 -4 2373 -8 2373 -5 0 -5 4 -2
10 4 6 -1149 9 -3260 7 l-3266 -2 3 -3274z"/>
</g>
</svg>
